<mxfile host="65bd71144e">
    <diagram id="lePEC99w6xmi49UkMN3E" name="Page-1">
        <mxGraphModel dx="1313" dy="457" grid="1" gridSize="10" guides="1" tooltips="1" connect="1" arrows="1" fold="1" page="1" pageScale="1" pageWidth="1100" pageHeight="850" math="0" shadow="0">
            <root>
                <mxCell id="0"/>
                <mxCell id="1" parent="0"/>
                <mxCell id="4" value="" style="whiteSpace=wrap;html=1;fillColor=none;strokeColor=#6c8ebf;dashed=1;" parent="1" vertex="1">
                    <mxGeometry x="499" y="240" width="240" height="238" as="geometry"/>
                </mxCell>
                <mxCell id="12" value="" style="whiteSpace=wrap;html=1;dashed=1;fillColor=#f5f5f5;fontColor=#333333;strokeColor=none;" parent="1" vertex="1">
                    <mxGeometry x="503" y="245" width="107" height="115" as="geometry"/>
                </mxCell>
                <mxCell id="10" value="az-vpngw" style="aspect=fixed;html=1;points=[];align=center;image;fontSize=12;image=img/lib/azure2/networking/Virtual_Network_Gateways.svg;glass=0;dashed=1;dashPattern=8 8;strokeColor=#E6E6E6;fontColor=#000000;fillColor=#CCCCCC;rounded=0;sketch=1;hachureGap=4;jiggle=2;curveFitting=1;fontFamily=Helvetica;labelBackgroundColor=none;" parent="1" vertex="1">
                    <mxGeometry x="539.8400000000001" y="270" width="33.16" height="44" as="geometry"/>
                </mxCell>
                <mxCell id="11" value="GatewaySubnet" style="text;html=1;align=center;verticalAlign=middle;resizable=0;points=[];autosize=1;strokeColor=none;fillColor=none;fontSize=8;" parent="1" vertex="1">
                    <mxGeometry x="493" y="240" width="80" height="20" as="geometry"/>
                </mxCell>
                <mxCell id="13" value="" style="whiteSpace=wrap;html=1;dashed=1;fillColor=#f5f5f5;fontColor=#333333;strokeColor=none;" parent="1" vertex="1">
                    <mxGeometry x="616" y="244" width="119" height="114" as="geometry"/>
                </mxCell>
                <mxCell id="14" value="Subnet1" style="text;html=1;align=center;verticalAlign=middle;resizable=0;points=[];autosize=1;strokeColor=none;fillColor=none;fontSize=8;" parent="1" vertex="1">
                    <mxGeometry x="613.1700000000001" y="240" width="50" height="20" as="geometry"/>
                </mxCell>
                <mxCell id="15" value="az-lxvm&lt;br style=&quot;font-size: 10px;&quot;&gt;10.0.0.4" style="aspect=fixed;html=1;points=[];align=center;image;fontSize=10;image=img/lib/azure2/compute/Virtual_Machine.svg;dashed=1;strokeColor=#CCE5FF;fillColor=none;fontFamily=Helvetica;labelBackgroundColor=none;fontStyle=1" parent="1" vertex="1">
                    <mxGeometry x="664.4499999999999" y="248" width="23.72" height="22" as="geometry"/>
                </mxCell>
                <mxCell id="5" value="" style="aspect=fixed;html=1;points=[];align=center;image;fontSize=12;image=img/lib/azure2/networking/Virtual_Networks.svg;dashed=1;" parent="1" vertex="1">
                    <mxGeometry x="709" y="230" width="33.5" height="20" as="geometry"/>
                </mxCell>
                <mxCell id="16" value="Azure vNET&lt;br style=&quot;font-size: 12px;&quot;&gt;10.0.0.0/24" style="text;html=1;align=center;verticalAlign=middle;resizable=0;points=[];autosize=1;strokeColor=none;fillColor=none;fontSize=12;fontFamily=Helvetica;fontStyle=1" parent="1" vertex="1">
                    <mxGeometry x="578.1699999999998" y="200" width="90" height="40" as="geometry"/>
                </mxCell>
                <mxCell id="17" value="" style="whiteSpace=wrap;html=1;dashed=1;labelBackgroundColor=#ffffff;strokeColor=#000000;fontFamily=Helvetica;fontSize=12;fillColor=#FFFFFF;fontColor=#333333;" parent="1" vertex="1">
                    <mxGeometry x="177.31" y="240" width="200" height="238" as="geometry"/>
                </mxCell>
                <mxCell id="22" value="" style="whiteSpace=wrap;html=1;dashed=1;fillColor=#f5f5f5;fontColor=#333333;strokeColor=none;" parent="1" vertex="1">
                    <mxGeometry x="503" y="361" width="232" height="114" as="geometry"/>
                </mxCell>
                <mxCell id="23" value="az-hub-lxvm&lt;br style=&quot;font-size: 10px;&quot;&gt;172.16.0.11" style="aspect=fixed;html=1;points=[];align=center;image;fontSize=10;image=img/lib/azure2/compute/Virtual_Machine.svg;dashed=1;strokeColor=#CCE5FF;fillColor=none;fontFamily=Helvetica;labelBackgroundColor=none;" parent="1" vertex="1">
                    <mxGeometry x="600.0000000000001" y="395.5" width="32.36" height="30" as="geometry"/>
                </mxCell>
                <mxCell id="32" value="" style="edgeStyle=none;html=1;endArrow=classicThin;endFill=1;endSize=2;startSize=2;" parent="1" source="24" target="28" edge="1">
                    <mxGeometry relative="1" as="geometry"/>
                </mxCell>
                <mxCell id="33" style="edgeStyle=none;html=1;endArrow=classicThin;endFill=1;endSize=2;startSize=2;" parent="1" source="24" target="30" edge="1">
                    <mxGeometry relative="1" as="geometry"/>
                </mxCell>
                <mxCell id="24" value="&lt;span style=&quot;font-size: 10px; font-weight: 700; background-color: rgb(255, 255, 255);&quot;&gt;az-hub-wingw&lt;/span&gt;" style="aspect=fixed;html=1;points=[];align=center;image;fontSize=12;image=img/lib/azure2/compute/Virtual_Machine.svg;dashed=1;strokeColor=#CCE5FF;fillColor=none;fontFamily=Helvetica;labelBackgroundColor=none;" parent="1" vertex="1">
                    <mxGeometry x="659.87" y="341.5" width="41.53" height="38.5" as="geometry"/>
                </mxCell>
                <mxCell id="27" value="Workload&lt;br&gt;172.16.0.0/24" style="text;html=1;align=center;verticalAlign=middle;resizable=0;points=[];autosize=1;strokeColor=none;fillColor=none;fontSize=8;fontStyle=1;fontColor=#9933FF;" parent="1" vertex="1">
                    <mxGeometry x="498.0000000000001" y="357" width="70" height="30" as="geometry"/>
                </mxCell>
                <mxCell id="28" value="" style="aspect=fixed;html=1;points=[];align=center;image;fontSize=12;image=img/lib/azure2/networking/Network_Interfaces.svg;" parent="1" vertex="1">
                    <mxGeometry x="669.3000000000001" y="307.25" width="22.67" height="20" as="geometry"/>
                </mxCell>
                <mxCell id="30" value="" style="aspect=fixed;html=1;points=[];align=center;image;fontSize=12;image=img/lib/azure2/networking/Network_Interfaces.svg;" parent="1" vertex="1">
                    <mxGeometry x="669.3000000000001" y="410.5" width="22.67" height="20" as="geometry"/>
                </mxCell>
                <mxCell id="42" value="" style="whiteSpace=wrap;html=1;dashed=1;fillColor=#f5f5f5;fontColor=#333333;strokeColor=none;" parent="1" vertex="1">
                    <mxGeometry x="182" y="348" width="185" height="125" as="geometry"/>
                </mxCell>
                <mxCell id="43" value="" style="whiteSpace=wrap;html=1;dashed=1;fillColor=#f5f5f5;fontColor=#333333;strokeColor=none;" parent="1" vertex="1">
                    <mxGeometry x="182" y="244" width="185.31" height="100" as="geometry"/>
                </mxCell>
                <mxCell id="49" style="edgeStyle=none;html=1;entryX=0.005;entryY=0.591;entryDx=0;entryDy=0;entryPerimeter=0;fontSize=10;fontColor=#000000;endArrow=none;endFill=0;" parent="1" source="38" target="10" edge="1">
                    <mxGeometry relative="1" as="geometry"/>
                </mxCell>
                <mxCell id="50" value="IPSec VPN" style="edgeLabel;html=1;align=center;verticalAlign=middle;resizable=0;points=[];fontSize=10;fontColor=#000000;" parent="49" vertex="1" connectable="0">
                    <mxGeometry x="-0.1576" y="-2" relative="1" as="geometry">
                        <mxPoint y="12" as="offset"/>
                    </mxGeometry>
                </mxCell>
                <mxCell id="38" value="VPN" style="sketch=0;outlineConnect=0;fontColor=#232F3E;gradientColor=none;fillColor=#232F3D;strokeColor=none;dashed=0;verticalLabelPosition=bottom;verticalAlign=top;align=center;html=1;fontSize=12;fontStyle=0;aspect=fixed;pointerEvents=1;shape=mxgraph.aws4.traditional_server;" parent="1" vertex="1">
                    <mxGeometry x="330" y="270" width="30" height="52" as="geometry"/>
                </mxCell>
                <mxCell id="44" value="onprem-linuxvm&lt;br style=&quot;font-size: 10px;&quot;&gt;172.16.0.10" style="sketch=0;aspect=fixed;html=1;points=[];align=center;image;fontSize=10;image=img/lib/mscae/VM_Linux.svg;strokeColor=#000000;fillColor=#FFFFFF;labelBackgroundColor=none;" parent="1" vertex="1">
                    <mxGeometry x="260.76" y="402" width="30.44" height="28" as="geometry"/>
                </mxCell>
                <mxCell id="40" value="" style="sketch=0;pointerEvents=1;shadow=0;dashed=0;html=1;strokeColor=none;fillColor=#505050;labelPosition=center;verticalLabelPosition=bottom;verticalAlign=top;outlineConnect=0;align=center;shape=mxgraph.office.users.on_premises_user;" parent="1" vertex="1">
                    <mxGeometry x="360" y="438" width="33" height="40" as="geometry"/>
                </mxCell>
                <mxCell id="58" value="" style="edgeStyle=none;html=1;fontSize=8;fontColor=#000000;endArrow=classicThin;endFill=1;startSize=2;endSize=2;jumpSize=6;" parent="1" source="47" target="39" edge="1">
                    <mxGeometry relative="1" as="geometry"/>
                </mxCell>
                <mxCell id="47" value="" style="sketch=0;aspect=fixed;pointerEvents=1;shadow=0;dashed=0;html=1;strokeColor=none;labelPosition=center;verticalLabelPosition=bottom;verticalAlign=top;align=center;fillColor=#000000;shape=mxgraph.mscae.enterprise.network_card;labelBackgroundColor=none;fontSize=10;fontColor=#000000;" parent="1" vertex="1">
                    <mxGeometry x="261.11" y="282" width="20.72" height="14.5" as="geometry"/>
                </mxCell>
                <mxCell id="59" style="edgeStyle=none;html=1;fontSize=8;fontColor=#000000;endArrow=classicThin;endFill=1;startSize=10;endSize=2;" parent="1" source="48" target="39" edge="1">
                    <mxGeometry relative="1" as="geometry"/>
                </mxCell>
                <mxCell id="48" value="" style="sketch=0;aspect=fixed;pointerEvents=1;shadow=0;dashed=0;html=1;strokeColor=none;labelPosition=center;verticalLabelPosition=bottom;verticalAlign=top;align=center;fillColor=#000000;shape=mxgraph.mscae.enterprise.network_card;labelBackgroundColor=none;fontSize=10;fontColor=#000000;" parent="1" vertex="1">
                    <mxGeometry x="260.76" y="380" width="21.43" height="15" as="geometry"/>
                </mxCell>
                <mxCell id="52" value="LAN&lt;br&gt;192.168.1.0/24" style="text;html=1;align=center;verticalAlign=middle;resizable=0;points=[];autosize=1;strokeColor=none;fillColor=none;fontSize=8;fontStyle=1" parent="1" vertex="1">
                    <mxGeometry x="172.00000000000003" y="244" width="80" height="30" as="geometry"/>
                </mxCell>
                <mxCell id="53" value="Workload&lt;br&gt;172.16.0.0/24" style="text;html=1;align=center;verticalAlign=middle;resizable=0;points=[];autosize=1;strokeColor=none;fillColor=none;fontSize=8;fontStyle=1;fontColor=#9933FF;" parent="1" vertex="1">
                    <mxGeometry x="182.00000000000003" y="345" width="70" height="30" as="geometry"/>
                </mxCell>
                <mxCell id="39" value="" style="sketch=0;outlineConnect=0;fontColor=default;gradientColor=none;fillColor=#232F3D;strokeColor=default;dashed=0;verticalLabelPosition=bottom;verticalAlign=middle;align=center;html=1;fontSize=11;fontStyle=0;aspect=fixed;pointerEvents=1;shape=mxgraph.aws4.traditional_server;fillStyle=solid;labelBackgroundColor=default;endArrow=classicThin;rounded=1;endFill=1;endSize=2;startSize=2;" parent="1" vertex="1">
                    <mxGeometry x="256.95" y="314" width="29.05" height="50.35" as="geometry"/>
                </mxCell>
                <mxCell id="56" value="Onprem-wingw" style="text;html=1;align=center;verticalAlign=middle;resizable=0;points=[];autosize=1;strokeColor=none;fillColor=none;fontSize=10;fontColor=#000000;fontStyle=1" parent="1" vertex="1">
                    <mxGeometry x="167" y="322" width="100" height="30" as="geometry"/>
                </mxCell>
                <mxCell id="65" value="Onpremises&lt;br&gt;192.168.1.0/24&lt;br&gt;172.16.0.0/24" style="text;html=1;align=center;verticalAlign=middle;resizable=0;points=[];autosize=1;strokeColor=none;fillColor=none;fontSize=12;fontFamily=Helvetica;fontStyle=1" vertex="1" parent="1">
                    <mxGeometry x="224.49999999999986" y="184" width="100" height="60" as="geometry"/>
                </mxCell>
            </root>
        </mxGraphModel>
    </diagram>
</mxfile>